<?xml version="1.0" encoding="UTF-8"?>
<svg version="1.1" xmlns="http://www.w3.org/2000/svg" width="192" height="192">
<path d="M0 0 C1.25190125 -0.00700928 2.50380249 -0.01401855 3.79364014 -0.02124023 C7.19479315 -0.03572853 10.59495996 -0.03247527 13.9960556 -0.01972389 C17.57567043 -0.00951053 21.15524659 -0.01901248 24.73486328 -0.02526855 C30.7432399 -0.03252095 36.75141907 -0.02302098 42.75976562 -0.00390625 C49.68033487 0.01785803 56.60043254 0.01080494 63.52099037 -0.01121187 C69.49080214 -0.02943502 75.46047295 -0.03189064 81.43030357 -0.0214572 C84.98358246 -0.01526 88.53664058 -0.01428126 92.08990479 -0.02760315 C96.05491084 -0.04143364 100.0193998 -0.02219952 103.984375 0 C105.14314148 -0.00809692 106.30190796 -0.01619385 107.49578857 -0.02453613 C119.1735658 0.09596646 128.48886532 3.40003993 136.9921875 11.51757812 C146.20152193 21.1645839 148.60094648 31.47632149 148.50976562 44.52539062 C148.5167749 45.77729187 148.52378418 47.02919312 148.53100586 48.31903076 C148.54549415 51.72018377 148.54224089 55.12035058 148.52948952 58.52144623 C148.51927615 62.10106105 148.5287781 65.68063722 148.53503418 69.26025391 C148.54228657 75.26863053 148.53278661 81.27680969 148.51367188 87.28515625 C148.49190759 94.20572549 148.49896069 101.12582316 148.5209775 108.046381 C148.53920064 114.01619276 148.54165626 119.98586357 148.53122282 125.9556942 C148.52502563 129.50897308 148.52404689 133.06203121 148.53736877 136.61529541 C148.55119927 140.58030147 148.53196515 144.54479043 148.50976562 148.50976562 C148.51786255 149.6685321 148.52595947 150.82729858 148.53430176 152.0211792 C148.41379916 163.69895642 145.10972569 173.01425594 136.9921875 181.51757812 C127.34518173 190.72691256 117.03344414 193.12633711 103.984375 193.03515625 C102.73247375 193.04216553 101.48057251 193.0491748 100.19073486 193.05639648 C96.78958185 193.07088478 93.38941504 193.06763152 89.9883194 193.05488014 C86.40870457 193.04466678 82.82912841 193.05416873 79.24951172 193.0604248 C73.2411351 193.0676772 67.23295593 193.05817723 61.22460938 193.0390625 C54.30404013 193.01729822 47.38394246 193.02435131 40.46338463 193.04636812 C34.49357286 193.06459127 28.52390205 193.06704689 22.55407143 193.05661345 C19.00079254 193.05041625 15.44773442 193.04943751 11.89447021 193.0627594 C7.92946416 193.07658989 3.9649752 193.05735577 0 193.03515625 C-1.15876648 193.04325317 -2.31753296 193.0513501 -3.51141357 193.05969238 C-15.1891908 192.93918979 -24.50449032 189.63511632 -33.0078125 181.51757812 C-42.21714693 171.87057235 -44.61657148 161.55883476 -44.52539062 148.50976562 C-44.5323999 147.25786438 -44.53940918 146.00596313 -44.54663086 144.71612549 C-44.56111915 141.31497248 -44.55786589 137.91480567 -44.54511452 134.51371002 C-44.53490115 130.9340952 -44.5444031 127.35451903 -44.55065918 123.77490234 C-44.55791157 117.76652572 -44.54841161 111.75834656 -44.52929688 105.75 C-44.50753259 98.82943076 -44.51458569 91.90933309 -44.5366025 84.98877525 C-44.55482564 79.01896349 -44.55728126 73.04929268 -44.54684782 67.07946205 C-44.54065063 63.52618317 -44.53967189 59.97312504 -44.55299377 56.41986084 C-44.56682427 52.45485478 -44.54759015 48.49036582 -44.52539062 44.52539062 C-44.53348755 43.36662415 -44.54158447 42.20785767 -44.54992676 41.01397705 C-44.42942416 29.33619983 -41.12535069 20.02090031 -33.0078125 11.51757812 C-23.36080673 2.30824369 -13.04906914 -0.09118086 0 0 Z " fill="#F7F7F8" transform="translate(44.0078125,-0.517578125)"/>
<path d="M0 0 C9.93521574 23.8632254 19.80888915 47.74896937 29.46455383 71.72685242 C31.102015 75.78925785 32.75405728 79.84519409 34.42372131 83.89447021 C35.16646558 85.69727594 35.90472273 87.5019283 36.64282227 89.30664062 C37.52008422 91.45158476 38.40422304 93.59373486 39.29663086 95.73242188 C39.67311768 96.65861328 40.04960449 97.58480469 40.4375 98.5390625 C40.76621094 99.33521973 41.09492188 100.13137695 41.43359375 100.95166016 C42 103 42 103 41 106 C38.80688477 107.25854492 38.80688477 107.25854492 35.94140625 108.48046875 C34.91595703 108.92197266 33.89050781 109.36347656 32.83398438 109.81835938 C31.75439453 110.27017578 30.67480469 110.72199219 29.5625 111.1875 C28.48677734 111.65091797 27.41105469 112.11433594 26.30273438 112.59179688 C18.30675856 116 18.30675856 116 16 116 C5.36117428 90.31954064 -5.24728728 64.62818913 -15.63961792 38.84681702 C-17.31739739 34.68539526 -19.00622775 30.52867586 -20.703125 26.375 C-21.44802496 24.54171066 -22.19282759 22.70838177 -22.9375 20.875 C-23.26194092 20.08722168 -23.58638184 19.29944336 -23.9206543 18.48779297 C-25.12751775 15.50038461 -26 13.25489949 -26 10 C-22.04406422 8.32760079 -18.0848716 6.66305618 -14.125 5 C-12.99707031 4.52304687 -11.86914062 4.04609375 -10.70703125 3.5546875 C-9.63066406 3.10351562 -8.55429688 2.65234375 -7.4453125 2.1875 C-6.45031738 1.76855469 -5.45532227 1.34960938 -4.43017578 0.91796875 C-2 0 -2 0 0 0 Z " fill="#D08DF9" transform="translate(90,38)"/>
<path d="M0 0 C6.84696796 15.78659187 13.40562017 31.68042531 19.875 47.625 C21.26393854 51.04246205 22.65342874 54.45969937 24.04302979 57.87689209 C24.96274389 60.14004703 25.88149597 62.40359318 26.79925537 64.6675415 C28.96920157 70.01850925 31.1469233 75.36591499 33.3528347 80.70215034 C34.13432736 82.59306475 34.91377331 84.48481037 35.69265747 86.37680054 C36.67574037 88.76254201 37.6629435 91.14659088 38.65475464 93.52871704 C39.09369049 94.596091 39.53262634 95.66346497 39.98486328 96.76318359 C40.37489532 97.70439056 40.76492737 98.64559753 41.16677856 99.61532593 C42 102 42 102 42 105 C38.04406422 106.67239921 34.0848716 108.33694382 30.125 110 C28.99707031 110.47695312 27.86914062 110.95390625 26.70703125 111.4453125 C25.63066406 111.89648438 24.55429688 112.34765625 23.4453125 112.8125 C22.45031738 113.23144531 21.45532227 113.65039062 20.43017578 114.08203125 C18 115 18 115 16 115 C6.7156392 93.12885971 -2.27251796 71.13952633 -11.21923828 49.12841797 C-11.67648285 48.00368073 -12.13372742 46.87894348 -12.60482788 45.72012329 C-13.49882406 43.52004813 -14.3920907 41.31967637 -15.28457642 39.11898804 C-17.24038354 34.30103775 -19.20653059 29.48862451 -21.21972656 24.69433594 C-21.55171051 23.90106903 -21.88369446 23.10780212 -22.22573853 22.29049683 C-22.82994637 20.85080907 -23.43847877 19.4129247 -24.05233765 17.97732544 C-25.24441126 15.13417115 -26 13.1195024 -26 10 C-22.23306487 8.32442019 -18.46084826 6.66108133 -14.6875 5 C-13.61564453 4.52304687 -12.54378906 4.04609375 -11.43945312 3.5546875 C-9.89741211 2.87792969 -9.89741211 2.87792969 -8.32421875 2.1875 C-7.37635498 1.76855469 -6.42849121 1.34960938 -5.4519043 0.91796875 C-3 0 -3 0 0 0 Z " fill="#C46AFB" transform="translate(55,38)"/>
<path d="M0 0 C1.28137969 2.52191325 2.36937694 4.97011066 3.4140625 7.58984375 C3.74112183 8.38471695 4.06818115 9.17959015 4.40515137 9.99855042 C5.48908056 12.64065167 6.55702715 15.28891316 7.625 17.9375 C8.37782396 19.78162564 9.1315809 21.62537067 9.88623047 23.46875 C11.87005399 28.32334002 13.83982136 33.18350081 15.80517578 38.04559326 C16.98376512 40.95985649 18.16516485 43.87296264 19.34765625 46.78564453 C22.30514983 54.07067515 25.26189363 61.35598729 28.20166016 68.64819336 C28.53410736 69.47258408 28.86655457 70.29697479 29.20907593 71.14634705 C29.85854271 72.75803635 30.50718468 74.37005831 31.15493774 75.98243713 C32.75354798 79.95280917 34.37686606 83.91022346 36.04589844 87.8515625 C36.37306854 88.62874634 36.70023865 89.40593018 37.037323 90.20666504 C37.65616682 91.67271314 38.28075809 93.13635369 38.91213989 94.5970459 C40.35600898 98.02562038 41 100.21240776 41 104 C37.23306487 105.67557981 33.46084826 107.33891867 29.6875 109 C28.61564453 109.47695312 27.54378906 109.95390625 26.43945312 110.4453125 C25.41142578 110.89648438 24.38339844 111.34765625 23.32421875 111.8125 C22.37635498 112.23144531 21.42849121 112.65039062 20.4519043 113.08203125 C18 114 18 114 15 114 C14.76879456 113.43229385 14.53758911 112.86458771 14.29937744 112.27967834 C12.2630795 107.27980307 10.22659637 102.28000329 8.18994141 97.28027344 C6.21773088 92.43869254 4.24613764 87.59686085 2.27490234 82.75488281 C-2.77387495 70.35546653 -7.83254153 57.96026468 -12.9140625 45.57421875 C-14.29205682 42.2118176 -15.66980679 38.84931643 -17.04748535 35.48678589 C-17.9325399 33.32881944 -18.81885218 31.1713684 -19.7064209 29.01443481 C-20.94015849 26.01607843 -22.16973017 23.01604549 -23.3984375 20.015625 C-23.76611237 19.12546188 -24.13378723 18.23529877 -24.51260376 17.31816101 C-24.8427951 16.50966202 -25.17298645 15.70116302 -25.51318359 14.86816406 C-25.94659561 13.81341888 -25.94659561 13.81341888 -26.38876343 12.73736572 C-27 11 -27 11 -27 9 C-23.06903205 7.29698126 -19.12929465 5.61528952 -15.1875 3.9375 C-13.50817383 3.20950195 -13.50817383 3.20950195 -11.79492188 2.46679688 C-10.72177734 2.01240234 -9.64863281 1.55800781 -8.54296875 1.08984375 C-7.55321045 0.66566162 -6.56345215 0.24147949 -5.54370117 -0.19555664 C-3 -1 -3 -1 0 0 Z " fill="#DAA7F8" transform="translate(126,40)"/>
<path d="M0 0 C2.30026807 2.30026807 3.00287616 4.12777781 4.21142578 7.14208984 C4.64593048 8.21856781 5.08043518 9.29504578 5.52810669 10.40414429 C5.99578461 11.57788605 6.46346252 12.75162781 6.9453125 13.9609375 C7.43401825 15.17584869 7.922724 16.39075989 8.42623901 17.64248657 C9.73302925 20.89137572 11.03361275 24.14271531 12.33294678 27.39459229 C13.62450187 30.62392789 14.92183809 33.85093788 16.21875 37.078125 C18.22294763 42.06662911 20.22119738 47.05746427 22.21582031 52.04980469 C23.971642 56.44185104 25.74036315 60.82815125 27.52636719 65.20800781 C27.90437469 66.13916412 28.2823822 67.07032043 28.67184448 68.0296936 C29.36371635 69.73255493 30.05951486 71.43382847 30.76004028 73.13314819 C33 78.66340421 33 78.66340421 33 82 C28.46180086 83.71106831 23.92280903 85.4200101 19.38305664 87.12695312 C17.83758714 87.70839436 16.29233907 88.2904245 14.74731445 88.87304688 C12.53133648 89.7085679 10.31458063 90.54199391 8.09765625 91.375 C7.4028566 91.63748535 6.70805695 91.8999707 5.99220276 92.17041016 C1.11387171 94 1.11387171 94 0 94 C0 62.98 0 31.96 0 0 Z " fill="#B646FB" transform="translate(28,58)"/>
</svg>
